{
    "asset" : {
        "generator" : "Khronos glTF Blender I/O v1.6.16",
        "version" : "2.0"
    },
    "scene" : 0,
    "scenes" : [
        {
            "name" : "Scene",
            "nodes" : [
                0
            ]
        }
    ],
    "nodes" : [
        {
            "mesh" : 0,
            "name" : "Plane.001"
        }
    ],
    "meshes" : [
        {
            "name" : "Plane.001",
            "primitives" : [
                {
                    "attributes" : {
                        "POSITION" : 0,
                        "TEXCOORD_0" : 1
                    },
                    "indices" : 2
                }
            ]
        }
    ],
    "accessors" : [
        {
            "bufferView" : 0,
            "componentType" : 5126,
            "count" : 931,
            "max" : [
                73.14189910888672,
                26.09123992919922,
                79.45968627929688
            ],
            "min" : [
                -79.1182861328125,
                -32.29963684082031,
                -70.56719970703125
            ],
            "type" : "VEC3"
        },
        {
            "bufferView" : 1,
            "componentType" : 5126,
            "count" : 931,
            "type" : "VEC2"
        },
        {
            "bufferView" : 2,
            "componentType" : 5123,
            "count" : 5574,
            "type" : "SCALAR"
        }
    ],
    "bufferViews" : [
        {
            "buffer" : 0,
            "byteLength" : 11172,
            "byteOffset" : 0
        },
        {
            "buffer" : 0,
            "byteLength" : 7448,
            "byteOffset" : 11172
        },
        {
            "buffer" : 0,
            "byteLength" : 11148,
            "byteOffset" : 18620
        }
    ],
    "buffers" : [
        {
            "byteLength" : 29768,
            "uri" : "data:application/octet-stream;base64,"
        }
    ]
}
