{
    "asset" : {
        "generator" : "Khronos glTF Blender I/O v1.6.16",
        "version" : "2.0"
    },
    "scene" : 0,
    "scenes" : [
        {
            "name" : "Scene",
            "nodes" : [
                0
            ]
        }
    ],
    "nodes" : [
        {
            "mesh" : 0,
            "name" : "Map_01"
        }
    ],
    "meshes" : [
        {
            "name" : "Cube",
            "primitives" : [
                {
                    "attributes" : {
                        "POSITION" : 0,
                        "NORMAL" : 1,
                        "TEXCOORD_0" : 2
                    },
                    "indices" : 3
                }
            ]
        }
    ],
    "accessors" : [
        {
            "bufferView" : 0,
            "componentType" : 5126,
            "count" : 3798,
            "max" : [
                87.56973266601562,
                54.27865219116211,
                86.621826171875
            ],
            "min" : [
                -86.92131805419922,
                -5.00000524520874,
                -87.34156036376953
            ],
            "type" : "VEC3"
        },
        {
            "bufferView" : 1,
            "componentType" : 5126,
            "count" : 3798,
            "type" : "VEC3"
        },
        {
            "bufferView" : 2,
            "componentType" : 5126,
            "count" : 3798,
            "type" : "VEC2"
        },
        {
            "bufferView" : 3,
            "componentType" : 5123,
            "count" : 3924,
            "type" : "SCALAR"
        }
    ],
    "bufferViews" : [
        {
            "buffer" : 0,
            "byteLength" : 45576,
            "byteOffset" : 0
        },
        {
            "buffer" : 0,
            "byteLength" : 45576,
            "byteOffset" : 45576
        },
        {
            "buffer" : 0,
            "byteLength" : 30384,
            "byteOffset" : 91152
        },
        {
            "buffer" : 0,
            "byteLength" : 7848,
            "byteOffset" : 121536
        }
    ],
    "buffers" : [
        {
            "byteLength" : 129384,
            "uri" : "data:application/octet-stream;base64,"
        }
    ]
}
