{
    "asset" : {
        "generator" : "Khronos glTF Blender I/O v1.6.16",
        "version" : "2.0"
    },
    "scene" : 0,
    "scenes" : [
        {
            "name" : "Scene",
            "nodes" : [
                0
            ]
        }
    ],
    "nodes" : [
        {
            "mesh" : 0,
            "name" : "Map02"
        }
    ],
    "meshes" : [
        {
            "name" : "Cube",
            "primitives" : [
                {
                    "attributes" : {
                        "POSITION" : 0,
                        "NORMAL" : 1,
                        "TEXCOORD_0" : 2
                    },
                    "indices" : 3
                }
            ]
        }
    ],
    "accessors" : [
        {
            "bufferView" : 0,
            "componentType" : 5126,
            "count" : 3430,
            "max" : [
                87.04660034179688,
                66.00901794433594,
                87.2569808959961
            ],
            "min" : [
                -87.02699279785156,
                -5.000000476837158,
                -87.2829360961914
            ],
            "type" : "VEC3"
        },
        {
            "bufferView" : 1,
            "componentType" : 5126,
            "count" : 3430,
            "type" : "VEC3"
        },
        {
            "bufferView" : 2,
            "componentType" : 5126,
            "count" : 3430,
            "type" : "VEC2"
        },
        {
            "bufferView" : 3,
            "componentType" : 5123,
            "count" : 3528,
            "type" : "SCALAR"
        }
    ],
    "bufferViews" : [
        {
            "buffer" : 0,
            "byteLength" : 41160,
            "byteOffset" : 0
        },
        {
            "buffer" : 0,
            "byteLength" : 41160,
            "byteOffset" : 41160
        },
        {
            "buffer" : 0,
            "byteLength" : 27440,
            "byteOffset" : 82320
        },
        {
            "buffer" : 0,
            "byteLength" : 7056,
            "byteOffset" : 109760
        }
    ],
    "buffers" : [
        {
            "byteLength" : 116816,
            "uri" : "data:application/octet-stream;base64,"
        }
    ]
}
