{
    "asset" : {
        "generator" : "Khronos glTF Blender I/O v1.6.16",
        "version" : "2.0"
    },
    "scene" : 0,
    "scenes" : [
        {
            "name" : "Scene",
            "nodes" : [
                0
            ]
        }
    ],
    "nodes" : [
        {
            "mesh" : 0,
            "name" : "Map"
        }
    ],
    "meshes" : [
        {
            "name" : "Cube.002",
            "primitives" : [
                {
                    "attributes" : {
                        "POSITION" : 0,
                        "TEXCOORD_0" : 1
                    },
                    "indices" : 2
                }
            ]
        }
    ],
    "accessors" : [
        {
            "bufferView" : 0,
            "componentType" : 5126,
            "count" : 3798,
            "max" : [
                68.87994384765625,
                20.471542358398438,
                69.95338439941406
            ],
            "min" : [
                -68.67999267578125,
                -9.68733024597168,
                -67.40184020996094
            ],
            "type" : "VEC3"
        },
        {
            "bufferView" : 1,
            "componentType" : 5126,
            "count" : 3798,
            "type" : "VEC2"
        },
        {
            "bufferView" : 2,
            "componentType" : 5123,
            "count" : 10344,
            "type" : "SCALAR"
        }
    ],
    "bufferViews" : [
        {
            "buffer" : 0,
            "byteLength" : 45576,
            "byteOffset" : 0
        },
        {
            "buffer" : 0,
            "byteLength" : 30384,
            "byteOffset" : 45576
        },
        {
            "buffer" : 0,
            "byteLength" : 20688,
            "byteOffset" : 75960
        }
    ],
    "buffers" : [
        {
            "byteLength" : 96648,
            "uri" : "data:application/octet-stream;base64,"
        }
    ]
}
