{
    "asset" : {
        "generator" : "Khronos glTF Blender I/O v1.6.16",
        "version" : "2.0"
    },
    "scene" : 0,
    "scenes" : [
        {
            "name" : "Scene",
            "nodes" : [
                0
            ]
        }
    ],
    "nodes" : [
        {
            "mesh" : 0,
            "name" : "Map Temp.001"
        }
    ],
    "meshes" : [
        {
            "name" : "Cube.003",
            "primitives" : [
                {
                    "attributes" : {
                        "POSITION" : 0,
                        "NORMAL" : 1,
                        "TEXCOORD_0" : 2
                    },
                    "indices" : 3
                }
            ]
        }
    ],
    "accessors" : [
        {
            "bufferView" : 0,
            "componentType" : 5126,
            "count" : 2036,
            "max" : [
                87.57310485839844,
                47.80249786376953,
                87.50044250488281
            ],
            "min" : [
                -87.64155578613281,
                -5,
                -88.56175994873047
            ],
            "type" : "VEC3"
        },
        {
            "bufferView" : 1,
            "componentType" : 5126,
            "count" : 2036,
            "type" : "VEC3"
        },
        {
            "bufferView" : 2,
            "componentType" : 5126,
            "count" : 2036,
            "type" : "VEC2"
        },
        {
            "bufferView" : 3,
            "componentType" : 5123,
            "count" : 2154,
            "type" : "SCALAR"
        }
    ],
    "bufferViews" : [
        {
            "buffer" : 0,
            "byteLength" : 24432,
            "byteOffset" : 0
        },
        {
            "buffer" : 0,
            "byteLength" : 24432,
            "byteOffset" : 24432
        },
        {
            "buffer" : 0,
            "byteLength" : 16288,
            "byteOffset" : 48864
        },
        {
            "buffer" : 0,
            "byteLength" : 4308,
            "byteOffset" : 65152
        }
    ],
    "buffers" : [
        {
            "byteLength" : 69460,
            "uri" : "data:application/octet-stream;base64,"
        }
    ]
}
