{
    "asset" : {
        "generator" : "Khronos glTF Blender I/O v1.6.16",
        "version" : "2.0"
    },
    "scene" : 0,
    "scenes" : [
        {
            "name" : "Scene",
            "nodes" : [
                0
            ]
        }
    ],
    "nodes" : [
        {
            "mesh" : 0,
            "name" : "Map.004"
        }
    ],
    "meshes" : [
        {
            "name" : "Cube.004",
            "primitives" : [
                {
                    "attributes" : {
                        "POSITION" : 0,
                        "NORMAL" : 1,
                        "TEXCOORD_0" : 2
                    },
                    "indices" : 3
                }
            ]
        }
    ],
    "accessors" : [
        {
            "bufferView" : 0,
            "componentType" : 5126,
            "count" : 3274,
            "max" : [
                82.5908203125,
                28.503015518188477,
                90.11068725585938
            ],
            "min" : [
                -92.52539825439453,
                -24.695398330688477,
                -85.14189910888672
            ],
            "type" : "VEC3"
        },
        {
            "bufferView" : 1,
            "componentType" : 5126,
            "count" : 3274,
            "type" : "VEC3"
        },
        {
            "bufferView" : 2,
            "componentType" : 5126,
            "count" : 3274,
            "type" : "VEC2"
        },
        {
            "bufferView" : 3,
            "componentType" : 5123,
            "count" : 3402,
            "type" : "SCALAR"
        }
    ],
    "bufferViews" : [
        {
            "buffer" : 0,
            "byteLength" : 39288,
            "byteOffset" : 0
        },
        {
            "buffer" : 0,
            "byteLength" : 39288,
            "byteOffset" : 39288
        },
        {
            "buffer" : 0,
            "byteLength" : 26192,
            "byteOffset" : 78576
        },
        {
            "buffer" : 0,
            "byteLength" : 6804,
            "byteOffset" : 104768
        }
    ],
    "buffers" : [
        {
            "byteLength" : 111572,
            "uri" : "data:application/octet-stream;base64,"
        }
    ]
}
