{
    "asset" : {
        "generator" : "Khronos glTF Blender I/O v1.6.16",
        "version" : "2.0"
    },
    "scene" : 0,
    "scenes" : [
        {
            "name" : "Scene",
            "nodes" : [
                0
            ]
        }
    ],
    "nodes" : [
        {
            "mesh" : 0,
            "name" : "Map Temp"
        }
    ],
    "meshes" : [
        {
            "name" : "Cube",
            "primitives" : [
                {
                    "attributes" : {
                        "POSITION" : 0,
                        "NORMAL" : 1,
                        "TEXCOORD_0" : 2
                    },
                    "indices" : 3
                }
            ]
        }
    ],
    "accessors" : [
        {
            "bufferView" : 0,
            "componentType" : 5126,
            "count" : 3424,
            "max" : [
                86.93888092041016,
                49.111305236816406,
                87.1639175415039
            ],
            "min" : [
                -86.82554626464844,
                -5.001670837402344,
                -86.69760131835938
            ],
            "type" : "VEC3"
        },
        {
            "bufferView" : 1,
            "componentType" : 5126,
            "count" : 3424,
            "type" : "VEC3"
        },
        {
            "bufferView" : 2,
            "componentType" : 5126,
            "count" : 3424,
            "type" : "VEC2"
        },
        {
            "bufferView" : 3,
            "componentType" : 5123,
            "count" : 3522,
            "type" : "SCALAR"
        }
    ],
    "bufferViews" : [
        {
            "buffer" : 0,
            "byteLength" : 41088,
            "byteOffset" : 0
        },
        {
            "buffer" : 0,
            "byteLength" : 41088,
            "byteOffset" : 41088
        },
        {
            "buffer" : 0,
            "byteLength" : 27392,
            "byteOffset" : 82176
        },
        {
            "buffer" : 0,
            "byteLength" : 7044,
            "byteOffset" : 109568
        }
    ],
    "buffers" : [
        {
            "byteLength" : 116612,
            "uri" : "data:application/octet-stream;base64,"
        }
    ]
}
