{
    "asset" : {
        "generator" : "Khronos glTF Blender I/O v1.6.16",
        "version" : "2.0"
    },
    "scene" : 0,
    "scenes" : [
        {
            "name" : "Scene",
            "nodes" : [
                0
            ]
        }
    ],
    "nodes" : [
        {
            "mesh" : 0,
            "name" : "Map Temp"
        }
    ],
    "meshes" : [
        {
            "name" : "Cube",
            "primitives" : [
                {
                    "attributes" : {
                        "POSITION" : 0,
                        "NORMAL" : 1,
                        "TEXCOORD_0" : 2
                    },
                    "indices" : 3
                }
            ]
        }
    ],
    "accessors" : [
        {
            "bufferView" : 0,
            "componentType" : 5126,
            "count" : 3416,
            "max" : [
                86.76195526123047,
                49.726139068603516,
                86.7957992553711
            ],
            "min" : [
                -86.8138198852539,
                -5.000000476837158,
                -86.97666931152344
            ],
            "type" : "VEC3"
        },
        {
            "bufferView" : 1,
            "componentType" : 5126,
            "count" : 3416,
            "type" : "VEC3"
        },
        {
            "bufferView" : 2,
            "componentType" : 5126,
            "count" : 3416,
            "type" : "VEC2"
        },
        {
            "bufferView" : 3,
            "componentType" : 5123,
            "count" : 3528,
            "type" : "SCALAR"
        }
    ],
    "bufferViews" : [
        {
            "buffer" : 0,
            "byteLength" : 40992,
            "byteOffset" : 0
        },
        {
            "buffer" : 0,
            "byteLength" : 40992,
            "byteOffset" : 40992
        },
        {
            "buffer" : 0,
            "byteLength" : 27328,
            "byteOffset" : 81984
        },
        {
            "buffer" : 0,
            "byteLength" : 7056,
            "byteOffset" : 109312
        }
    ],
    "buffers" : [
        {
            "byteLength" : 116368,
            "uri" : "data:application/octet-stream;base64,"
        }
    ]
}
