{
    "asset" : {
        "generator" : "Khronos glTF Blender I/O v1.6.16",
        "version" : "2.0"
    },
    "scene" : 0,
    "scenes" : [
        {
            "name" : "Scene",
            "nodes" : [
                0
            ]
        }
    ],
    "nodes" : [
        {
            "mesh" : 0,
            "name" : "Map Temp"
        }
    ],
    "meshes" : [
        {
            "name" : "Cube",
            "primitives" : [
                {
                    "attributes" : {
                        "POSITION" : 0,
                        "NORMAL" : 1,
                        "TEXCOORD_0" : 2
                    },
                    "indices" : 3
                }
            ]
        }
    ],
    "accessors" : [
        {
            "bufferView" : 0,
            "componentType" : 5126,
            "count" : 3432,
            "max" : [
                86.85369873046875,
                62.77996063232422,
                86.87554168701172
            ],
            "min" : [
                -86.78768157958984,
                -5.000000476837158,
                -87.56634521484375
            ],
            "type" : "VEC3"
        },
        {
            "bufferView" : 1,
            "componentType" : 5126,
            "count" : 3432,
            "type" : "VEC3"
        },
        {
            "bufferView" : 2,
            "componentType" : 5126,
            "count" : 3432,
            "type" : "VEC2"
        },
        {
            "bufferView" : 3,
            "componentType" : 5123,
            "count" : 3528,
            "type" : "SCALAR"
        }
    ],
    "bufferViews" : [
        {
            "buffer" : 0,
            "byteLength" : 41184,
            "byteOffset" : 0
        },
        {
            "buffer" : 0,
            "byteLength" : 41184,
            "byteOffset" : 41184
        },
        {
            "buffer" : 0,
            "byteLength" : 27456,
            "byteOffset" : 82368
        },
        {
            "buffer" : 0,
            "byteLength" : 7056,
            "byteOffset" : 109824
        }
    ],
    "buffers" : [
        {
            "byteLength" : 116880,
            "uri" : "data:application/octet-stream;base64,"
        }
    ]
}
