{
    "asset" : {
        "generator" : "Khronos glTF Blender I/O v1.6.16",
        "version" : "2.0"
    },
    "scene" : 0,
    "scenes" : [
        {
            "name" : "Scene",
            "nodes" : [
                0
            ]
        }
    ],
    "nodes" : [
        {
            "mesh" : 0,
            "name" : "Map.005"
        }
    ],
    "meshes" : [
        {
            "name" : "Cube.005",
            "primitives" : [
                {
                    "attributes" : {
                        "POSITION" : 0,
                        "NORMAL" : 1,
                        "TEXCOORD_0" : 2
                    },
                    "indices" : 3
                }
            ]
        }
    ],
    "accessors" : [
        {
            "bufferView" : 0,
            "componentType" : 5126,
            "count" : 5924,
            "max" : [
                76.57453918457031,
                32.97979736328125,
                89.64608764648438
            ],
            "min" : [
                -98.42859649658203,
                -23.46654510498047,
                -85.37163543701172
            ],
            "type" : "VEC3"
        },
        {
            "bufferView" : 1,
            "componentType" : 5126,
            "count" : 5924,
            "type" : "VEC3"
        },
        {
            "bufferView" : 2,
            "componentType" : 5126,
            "count" : 5924,
            "type" : "VEC2"
        },
        {
            "bufferView" : 3,
            "componentType" : 5123,
            "count" : 6180,
            "type" : "SCALAR"
        }
    ],
    "bufferViews" : [
        {
            "buffer" : 0,
            "byteLength" : 71088,
            "byteOffset" : 0
        },
        {
            "buffer" : 0,
            "byteLength" : 71088,
            "byteOffset" : 71088
        },
        {
            "buffer" : 0,
            "byteLength" : 47392,
            "byteOffset" : 142176
        },
        {
            "buffer" : 0,
            "byteLength" : 12360,
            "byteOffset" : 189568
        }
    ],
    "buffers" : [
        {
            "byteLength" : 201928,
            "uri" : "data:application/octet-stream;base64,"
        }
    ]
}
