{
    "asset" : {
        "generator" : "Khronos glTF Blender I/O v1.6.16",
        "version" : "2.0"
    },
    "scene" : 0,
    "scenes" : [
        {
            "name" : "Scene",
            "nodes" : [
                0
            ]
        }
    ],
    "nodes" : [
        {
            "mesh" : 0,
            "name" : "Map.006"
        }
    ],
    "meshes" : [
        {
            "name" : "Cube.006",
            "primitives" : [
                {
                    "attributes" : {
                        "POSITION" : 0,
                        "NORMAL" : 1,
                        "TEXCOORD_0" : 2
                    },
                    "indices" : 3
                }
            ]
        }
    ],
    "accessors" : [
        {
            "bufferView" : 0,
            "componentType" : 5126,
            "count" : 3576,
            "max" : [
                86.20257568359375,
                36.826171875,
                94.13845825195312
            ],
            "min" : [
                -88.82652282714844,
                -22.622268676757812,
                -80.88821411132812
            ],
            "type" : "VEC3"
        },
        {
            "bufferView" : 1,
            "componentType" : 5126,
            "count" : 3576,
            "type" : "VEC3"
        },
        {
            "bufferView" : 2,
            "componentType" : 5126,
            "count" : 3576,
            "type" : "VEC2"
        },
        {
            "bufferView" : 3,
            "componentType" : 5123,
            "count" : 3708,
            "type" : "SCALAR"
        }
    ],
    "bufferViews" : [
        {
            "buffer" : 0,
            "byteLength" : 42912,
            "byteOffset" : 0
        },
        {
            "buffer" : 0,
            "byteLength" : 42912,
            "byteOffset" : 42912
        },
        {
            "buffer" : 0,
            "byteLength" : 28608,
            "byteOffset" : 85824
        },
        {
            "buffer" : 0,
            "byteLength" : 7416,
            "byteOffset" : 114432
        }
    ],
    "buffers" : [
        {
            "byteLength" : 121848,
            "uri" : "data:application/octet-stream;base64,"
        }
    ]
}
