<?xml version="1.0" standalone="no"?>
<!DOCTYPE svg PUBLIC "-//W3C//DTD SVG 20010904//EN"
 "http://www.w3.org/TR/2001/REC-SVG-20010904/DTD/svg10.dtd">
<svg version="1.0" xmlns="http://www.w3.org/2000/svg"
 width="200.000000pt" height="200.000000pt" viewBox="0 0 200.000000 200.000000"
 preserveAspectRatio="xMidYMid meet">
<metadata>
Created by potrace 1.14, written by Peter Selinger 2001-2017
</metadata>
<g transform="translate(0.000000,200.000000) scale(0.100000,-0.100000)"
fill="#000000" stroke="none">
<path d="M745 1642 c-62 -13 -86 -89 -40 -132 l24 -23 -29 -38 c-17 -20 -42
-64 -56 -96 -14 -32 -32 -62 -40 -66 -17 -10 -18 -34 -1 -40 9 -4 8 -8 -3 -16
-12 -8 -12 -14 -4 -28 8 -13 8 -23 0 -36 -9 -14 -8 -20 5 -27 9 -6 20 -22 24
-37 11 -46 37 -96 71 -139 l33 -41 -110 0 -110 0 -77 -76 -77 -77 -2 -159 c-1
-180 -11 -211 -64 -211 -31 0 -47 -16 -30 -33 11 -11 226 -16 237 -4 14 14 -7
37 -34 37 -48 0 -62 39 -62 169 l0 111 85 85 c46 47 87 85 90 85 3 0 5 -46 4
-102 0 -57 0 -111 0 -120 1 -16 15 -18 157 -18 l156 0 -28 -47 c-46 -78 -55
-100 -48 -116 8 -21 59 -37 106 -33 20 2 43 -1 50 -5 8 -5 -8 -9 -39 -9 -45 0
-53 -3 -53 -19 0 -10 6 -21 13 -23 10 -3 192 -2 220 1 4 1 7 10 7 21 0 17 -7
20 -52 20 -68 0 -55 11 19 15 119 6 124 21 49 148 l-28 47 156 0 156 0 1 93
c1 50 0 104 -1 120 -1 15 1 27 4 27 3 0 43 -38 90 -85 l86 -85 0 -111 c0 -130
-14 -169 -62 -169 -27 0 -48 -23 -35 -37 12 -11 219 -9 235 3 21 15 6 34 -28
34 -20 0 -33 8 -47 29 -16 26 -18 50 -17 184 l1 156 -77 76 -78 77 -109 1
-110 0 36 49 c21 26 45 72 55 101 10 28 26 58 35 65 12 10 13 17 5 30 -8 12
-8 22 0 35 8 14 8 20 -4 28 -11 8 -12 12 -2 16 16 6 15 30 -2 40 -8 4 -24 29
-35 55 -19 46 -19 46 0 64 18 16 20 16 38 0 33 -30 56 1 26 34 -14 15 -14 19
-1 30 13 10 19 9 31 -4 9 -9 21 -16 26 -16 18 0 22 31 6 47 -14 14 -14 18 0
39 14 21 14 24 0 30 -9 3 -24 1 -34 -4 -13 -8 -23 -6 -35 5 -15 13 -20 13 -33
3 -14 -12 -14 -15 0 -30 9 -9 13 -25 9 -34 -8 -20 -18 -20 -34 -1 -30 36 -53
6 -28 -35 9 -14 9 -23 2 -30 -8 -8 -25 2 -60 35 -27 26 -71 58 -99 72 -56 29
-65 38 -60 64 6 28 -12 33 -122 34 -104 0 -120 -6 -107 -39 3 -7 -2 -21 -12
-30 -17 -17 -35 -18 -36 -1 -1 35 -56 75 -93 67z m36 -52 c5 0 9 -4 9 -8 0 -5
-10 -8 -22 -8 -18 1 -22 -4 -21 -21 2 -13 0 -23 -2 -23 -3 0 -9 10 -14 23 -10
26 5 51 26 42 8 -3 19 -5 24 -5z m290 -17 c0 -16 2 -41 3 -58 2 -16 6 -93 10
-170 4 -77 9 -162 11 -190 3 -27 7 -105 10 -172 l6 -123 -47 0 c-47 0 -52 14
-9 22 16 3 21 12 23 55 3 58 -1 61 -78 61 -75 0 -80 -3 -80 -58 0 -38 4 -52
19 -59 10 -6 21 -8 24 -5 3 3 8 1 12 -5 4 -7 -10 -11 -40 -11 l-47 0 7 133 c4
72 8 152 10 177 2 25 7 104 11 175 4 72 8 146 9 165 2 19 3 47 4 63 1 27 2 27
71 27 69 0 70 0 71 -27z m-191 -68 c0 -8 -4 -15 -9 -15 -13 0 -22 16 -14 24
11 11 23 6 23 -9z m301 -14 c41 -26 100 -81 87 -81 -19 0 -148 84 -148 96 0
20 10 18 61 -15z m-362 -20 c11 -7 9 -12 -10 -22 -13 -7 -40 -21 -59 -32 l-35
-19 40 41 c42 44 43 45 64 32z m53 -115 l-4 -66 -68 0 -68 0 1 32 c2 29 9 37
66 70 35 20 67 35 70 34 3 -2 4 -34 3 -70z m328 36 c58 -33 65 -41 67 -70 l1
-32 -69 0 -69 0 -1 43 c0 23 -2 54 -3 70 -1 15 1 27 4 27 3 0 34 -17 70 -38z
m-514 -99 c-11 -11 -17 4 -9 23 7 18 8 18 11 1 2 -10 1 -21 -2 -24z m644 5 c0
-5 -4 -8 -10 -8 -5 0 -10 10 -10 23 0 18 2 19 10 7 5 -8 10 -18 10 -22z m-540
-58 c0 -3 -27 -6 -60 -6 -33 0 -60 3 -60 6 0 3 27 6 60 6 33 0 60 -3 60 -6z
m46 -2 c3 -4 -1 -5 -10 -4 -8 1 -18 5 -22 8 -3 4 1 5 10 4 8 -1 18 -5 22 -8z
m499 1 c-5 -6 -162 -6 -169 1 -2 3 35 5 84 5 48 0 87 -2 85 -6z m-522 -56
c-29 -2 -77 -2 -105 0 -29 2 -6 3 52 3 58 0 81 -1 53 -3z m480 0 c-29 -2 -77
-2 -105 0 -29 2 -6 3 52 3 58 0 81 -1 53 -3z m-603 -86 c0 -24 -3 -28 -10 -17
-13 20 -13 63 0 55 6 -3 10 -21 10 -38z m161 34 c7 -1 1 -133 -6 -140 -2 -2
-28 11 -58 28 -54 31 -55 32 -52 74 1 23 3 42 4 42 5 1 107 -3 112 -4z m411 0
c3 -1 6 -16 6 -35 0 -18 -3 -38 -6 -43 -8 -13 -102 -66 -107 -61 -2 2 -6 34
-8 70 -4 62 -3 67 17 70 17 3 70 2 98 -1z m70 -18 c-5 -10 -12 -25 -15 -33 -3
-8 -6 0 -6 18 -1 22 4 32 14 32 12 0 13 -5 7 -17z m-486 -197 c1 -9 -1 -16 -6
-16 -13 0 -110 79 -110 90 0 16 113 -56 116 -74z m413 58 c-17 -21 -89 -74
-100 -74 -4 0 -6 7 -5 16 2 15 106 85 115 78 2 -2 -2 -11 -10 -20z m-229 -39
c0 -10 -10 -15 -30 -15 -20 0 -30 5 -30 15 0 10 10 15 30 15 20 0 30 -5 30
-15z m-224 -68 c4 -4 -43 -7 -104 -7 -62 0 -112 4 -112 9 0 11 205 9 216 -2z
m610 0 c4 -4 -46 -7 -112 -7 -73 0 -114 4 -105 9 16 10 207 8 217 -2z m-691
-56 c11 -1 15 -150 5 -152 -3 0 -26 -2 -52 -3 -55 -3 -56 -2 -56 91 0 72 0 72
103 64z m241 0 c8 -1 11 -28 11 -79 l0 -77 -96 0 -96 0 -3 77 c-3 73 -2 77 20
80 19 2 126 2 164 -1z m239 0 c12 -1 15 -17 15 -79 l0 -77 -97 0 -98 0 -1 75
c-1 41 2 77 6 80 7 4 111 5 175 1z m166 0 c3 -1 6 -36 5 -78 l-1 -77 -52 -2
c-32 0 -54 3 -54 10 -1 6 -2 40 -3 76 -1 55 2 66 17 70 15 4 59 4 88 1z m220
-48 c13 -16 12 -17 -3 -4 -17 13 -22 21 -14 21 2 0 10 -8 17 -17z m-505 -209
l25 -42 -43 2 -42 1 -4 43 c-3 40 -2 43 18 40 13 -2 32 -20 46 -44z m-171 -13
c-21 -43 -29 -39 -8 4 9 19 18 33 21 31 2 -2 -4 -18 -13 -35z m56 -24 c-8 -8
-11 -7 -11 4 0 20 13 34 18 19 3 -7 -1 -17 -7 -23z m-23 -54 c-16 -2 -40 -2
-55 0 -16 2 -3 4 27 4 30 0 43 -2 28 -4z m170 0 c-16 -2 -40 -2 -55 0 -16 2
-3 4 27 4 30 0 43 -2 28 -4z"/>
</g>
</svg>
