{
    "asset" : {
        "generator" : "Khronos glTF Blender I/O v1.6.16",
        "version" : "2.0"
    },
    "scene" : 0,
    "scenes" : [
        {
            "name" : "Scene",
            "nodes" : [
                0
            ]
        }
    ],
    "nodes" : [
        {
            "mesh" : 0,
            "name" : "Map.002"
        }
    ],
    "meshes" : [
        {
            "name" : "Cube.002",
            "primitives" : [
                {
                    "attributes" : {
                        "POSITION" : 0,
                        "NORMAL" : 1,
                        "TEXCOORD_0" : 2
                    },
                    "indices" : 3
                }
            ]
        }
    ],
    "accessors" : [
        {
            "bufferView" : 0,
            "componentType" : 5126,
            "count" : 2964,
            "max" : [
                86.59072875976562,
                63.73231506347656,
                90.62571716308594
            ],
            "min" : [
                -90.84513854980469,
                2.956361770629883,
                -84.65668487548828
            ],
            "type" : "VEC3"
        },
        {
            "bufferView" : 1,
            "componentType" : 5126,
            "count" : 2964,
            "type" : "VEC3"
        },
        {
            "bufferView" : 2,
            "componentType" : 5126,
            "count" : 2964,
            "type" : "VEC2"
        },
        {
            "bufferView" : 3,
            "componentType" : 5123,
            "count" : 3090,
            "type" : "SCALAR"
        }
    ],
    "bufferViews" : [
        {
            "buffer" : 0,
            "byteLength" : 35568,
            "byteOffset" : 0
        },
        {
            "buffer" : 0,
            "byteLength" : 35568,
            "byteOffset" : 35568
        },
        {
            "buffer" : 0,
            "byteLength" : 23712,
            "byteOffset" : 71136
        },
        {
            "buffer" : 0,
            "byteLength" : 6180,
            "byteOffset" : 94848
        }
    ],
    "buffers" : [
        {
            "byteLength" : 101028,
            "uri" : "data:application/octet-stream;base64,"
        }
    ]
}
