{
    "asset" : {
        "generator" : "Khronos glTF Blender I/O v1.6.16",
        "version" : "2.0"
    },
    "scene" : 0,
    "scenes" : [
        {
            "name" : "Scene",
            "nodes" : [
                0
            ]
        }
    ],
    "nodes" : [
        {
            "mesh" : 0,
            "name" : "Map.001"
        }
    ],
    "meshes" : [
        {
            "name" : "Cube.001",
            "primitives" : [
                {
                    "attributes" : {
                        "POSITION" : 0,
                        "NORMAL" : 1,
                        "TEXCOORD_0" : 2,
                        "COLOR_0" : 3
                    },
                    "indices" : 4
                }
            ]
        }
    ],
    "accessors" : [
        {
            "bufferView" : 0,
            "componentType" : 5126,
            "count" : 2958,
            "max" : [
                87.65169525146484,
                55.35503005981445,
                87.51681518554688
            ],
            "min" : [
                -87.36773681640625,
                -5.000000953674316,
                -87.52291870117188
            ],
            "type" : "VEC3"
        },
        {
            "bufferView" : 1,
            "componentType" : 5126,
            "count" : 2958,
            "type" : "VEC3"
        },
        {
            "bufferView" : 2,
            "componentType" : 5126,
            "count" : 2958,
            "type" : "VEC2"
        },
        {
            "bufferView" : 3,
            "componentType" : 5123,
            "count" : 2958,
            "normalized" : true,
            "type" : "VEC4"
        },
        {
            "bufferView" : 4,
            "componentType" : 5123,
            "count" : 3090,
            "type" : "SCALAR"
        }
    ],
    "bufferViews" : [
        {
            "buffer" : 0,
            "byteLength" : 35496,
            "byteOffset" : 0
        },
        {
            "buffer" : 0,
            "byteLength" : 35496,
            "byteOffset" : 35496
        },
        {
            "buffer" : 0,
            "byteLength" : 23664,
            "byteOffset" : 70992
        },
        {
            "buffer" : 0,
            "byteLength" : 23664,
            "byteOffset" : 94656
        },
        {
            "buffer" : 0,
            "byteLength" : 6180,
            "byteOffset" : 118320
        }
    ],
    "buffers" : [
        {
            "byteLength" : 124500,
            "uri" : "data:application/octet-stream;base64,"
        }
    ]
}
