{
    "asset" : {
        "generator" : "Khronos glTF Blender I/O v1.6.16",
        "version" : "2.0"
    },
    "scene" : 0,
    "scenes" : [
        {
            "name" : "Scene",
            "nodes" : [
                0
            ]
        }
    ],
    "nodes" : [
        {
            "mesh" : 0,
            "name" : "Icosphere",
            "scale" : [
                2.9366509914398193,
                2.9366509914398193,
                2.9366509914398193
            ]
        }
    ],
    "materials" : [
        {
            "doubleSided" : true,
            "name" : "Material",
            "pbrMetallicRoughness" : {
                "baseColorFactor" : [
                    0.9999843835830688,
                    0.846422016620636,
                    0.7156446576118469,
                    1
                ],
                "metallicFactor" : 0,
                "roughnessFactor" : 0.5
            }
        }
    ],
    "meshes" : [
        {
            "name" : "Icosphere",
            "primitives" : [
                {
                    "attributes" : {
                        "POSITION" : 0,
                        "NORMAL" : 1,
                        "TEXCOORD_0" : 2
                    },
                    "indices" : 3,
                    "material" : 0
                }
            ]
        }
    ],
    "accessors" : [
        {
            "bufferView" : 0,
            "componentType" : 5126,
            "count" : 3840,
            "max" : [
                34.897979736328125,
                36.75364303588867,
                33.95229721069336
            ],
            "min" : [
                -39.64670181274414,
                -38.8282470703125,
                -37.79754638671875
            ],
            "type" : "VEC3"
        },
        {
            "bufferView" : 1,
            "componentType" : 5126,
            "count" : 3840,
            "type" : "VEC3"
        },
        {
            "bufferView" : 2,
            "componentType" : 5126,
            "count" : 3840,
            "type" : "VEC2"
        },
        {
            "bufferView" : 3,
            "componentType" : 5123,
            "count" : 3840,
            "type" : "SCALAR"
        }
    ],
    "bufferViews" : [
        {
            "buffer" : 0,
            "byteLength" : 46080,
            "byteOffset" : 0
        },
        {
            "buffer" : 0,
            "byteLength" : 46080,
            "byteOffset" : 46080
        },
        {
            "buffer" : 0,
            "byteLength" : 30720,
            "byteOffset" : 92160
        },
        {
            "buffer" : 0,
            "byteLength" : 7680,
            "byteOffset" : 122880
        }
    ],
    "buffers" : [
        {
            "byteLength" : 130560,
            "uri" : "data:application/octet-stream;base64,"
        }
    ]
}
