{
    "asset" : {
        "generator" : "Khronos glTF Blender I/O v1.6.16",
        "version" : "2.0"
    },
    "scene" : 0,
    "scenes" : [
        {
            "name" : "Scene",
            "nodes" : [
                0
            ]
        }
    ],
    "nodes" : [
        {
            "mesh" : 0,
            "name" : "Map.01",
            "translation" : [
                69.96321105957031,
                2.700000047683716,
                0.52789306640625
            ]
        }
    ],
    "materials" : [
        {
            "doubleSided" : true,
            "name" : "Material.008",
            "pbrMetallicRoughness" : {
                "baseColorFactor" : [
                    0.0732354074716568,
                    0.0732354074716568,
                    0.0732354074716568,
                    1
                ],
                "metallicFactor" : 0,
                "roughnessFactor" : 0.5
            }
        }
    ],
    "meshes" : [
        {
            "name" : "Cube",
            "primitives" : [
                {
                    "attributes" : {
                        "POSITION" : 0,
                        "NORMAL" : 1,
                        "TEXCOORD_0" : 2
                    },
                    "indices" : 3,
                    "material" : 0
                }
            ]
        }
    ],
    "accessors" : [
        {
            "bufferView" : 0,
            "componentType" : 5126,
            "count" : 23364,
            "max" : [
                49.5245475769043,
                21.814651489257812,
                49.541648864746094
            ],
            "min" : [
                -49.52287292480469,
                -2.6057586669921875,
                -49.516998291015625
            ],
            "type" : "VEC3"
        },
        {
            "bufferView" : 1,
            "componentType" : 5126,
            "count" : 23364,
            "type" : "VEC3"
        },
        {
            "bufferView" : 2,
            "componentType" : 5126,
            "count" : 23364,
            "type" : "VEC2"
        },
        {
            "bufferView" : 3,
            "componentType" : 5123,
            "count" : 35586,
            "type" : "SCALAR"
        }
    ],
    "bufferViews" : [
        {
            "buffer" : 0,
            "byteLength" : 280368,
            "byteOffset" : 0
        },
        {
            "buffer" : 0,
            "byteLength" : 280368,
            "byteOffset" : 280368
        },
        {
            "buffer" : 0,
            "byteLength" : 186912,
            "byteOffset" : 560736
        },
        {
            "buffer" : 0,
            "byteLength" : 71172,
            "byteOffset" : 747648
        }
    ],
    "buffers" : [
        {
            "byteLength" : 818820,
            "uri" : "data:application/octet-stream;base64,"
        }
    ]
}
